<?xml version="1.0" ?>
<!DOCTYPE svg  PUBLIC '-//W3C//DTD SVG 1.1//EN'  'http://www.w3.org/Graphics/SVG/1.1/DTD/svg11.dtd'>
<!-- Uploaded to: SVG Repo, www.svgrepo.com, Generator: SVG Repo Mixer Tools -->
<svg fill="#000000" width="800px" height="800px" viewBox="0 0 512 512" version="1.1" xml:space="preserve" xmlns="http://www.w3.org/2000/svg" xmlns:xlink="http://www.w3.org/1999/xlink">
<g id="_x37_01_x2C__Business_x2C__conference_x2C__convention_x2C__presentation_x2C__seminar">
<g>
<path d="M82.495,103.51c2.609-0.5,5.247-0.748,7.939-0.748c11.798,0,22.486,4.773,30.231,12.52    c7.718,7.717,12.521,18.406,12.521,30.23c0,11.799-4.803,22.487-12.521,30.205c-7.745,7.745-18.434,12.52-30.231,12.52    c-11.798,0-22.486-4.774-30.232-12.52c-7.717-7.718-12.52-18.406-12.52-30.205c0-2.553,0.25-5.136,0.722-7.66    c0.222-1.334,0.555-2.694,0.916-3.998l38.893,14.381c1.832,0.664,3.859-0.279,4.524-2.111c0.306-0.806,0.277-1.693,0-2.443    l-14.463-39.143c1.305-0.389,2.666-0.721,4.025-0.998L82.495,103.51z M400.939,33.414h11.854c1.581,0,2.858,1.527,2.858,3.414    v54.773c0,1.888-1.277,3.414-2.858,3.414h-11.854c-1.582,0-2.887-1.526-2.887-3.414V36.828    C398.053,34.941,399.357,33.414,400.939,33.414z M424.48,60.814h11.854c1.583,0,2.86,1.525,2.86,3.414v27.373    c0,1.888-1.277,3.414-2.86,3.414H424.48c-1.583,0-2.887-1.526-2.887-3.414V64.229C421.594,62.34,422.897,60.814,424.48,60.814z     M448.022,43.602h11.854c1.582,0,2.887,1.528,2.887,3.414v44.586c0,1.888-1.305,3.414-2.887,3.414h-11.854    c-1.583,0-2.889-1.526-2.889-3.414V47.016C445.134,45.13,446.439,43.602,448.022,43.602z M465.956,98.568    c1.888,0,3.415,1.527,3.415,3.416c0,1.888-1.527,3.414-3.415,3.414h-94.638c-1.887,0-3.414-1.526-3.414-3.414    c0-1.889,1.527-3.416,3.414-3.416H465.956z M377.398,54.928h11.826c1.61,0,2.887,1.527,2.887,3.416v33.258    c0,1.888-1.276,3.414-2.887,3.414h-11.826c-1.583,0-2.887-1.526-2.887-3.414V58.344C374.512,56.455,375.815,54.928,377.398,54.928    z M109.923,86.16c-1.888,0-3.415-1.527-3.415-3.416c0-1.859,1.527-3.387,3.415-3.387h59.074c1.888,0,3.415,1.527,3.415,3.387    c0,1.889-1.527,3.416-3.415,3.416H109.923z M109.923,73.029c-1.888,0-3.415-1.527-3.415-3.387c0-1.889,1.527-3.416,3.415-3.416    h59.074c1.888,0,3.415,1.527,3.415,3.416c0,1.859-1.527,3.387-3.415,3.387H109.923z M109.923,59.898    c-1.888,0-3.415-1.527-3.415-3.387c0-1.889,1.527-3.415,3.415-3.415h59.074c1.888,0,3.415,1.526,3.415,3.415    c0,1.859-1.527,3.387-3.415,3.387H109.923z M109.923,46.768c-1.888,0-3.415-1.527-3.415-3.415c0-1.86,1.527-3.387,3.415-3.387    h59.074c1.888,0,3.415,1.526,3.415,3.387c0,1.888-1.527,3.415-3.415,3.415H109.923z M85.41,141.292L69.613,98.513    c-5.913,2.748-11.299,6.552-15.851,11.132c-4.58,4.555-8.384,9.911-11.132,15.824L85.41,141.292z M424.342,441.359l-19.239,17.185    c-1.304,1.249-3.387,1.277-4.718,0l-17.852-17.156l-35.949,15.657v28.954h113.792v-28.954L424.342,441.359z M404.076,422.759    c7.856,0,14.991-3.163,20.21-8.354c5.164-5.164,8.384-12.326,8.384-20.238c0-7.885-3.22-15.046-8.384-20.21    c-5.163-5.19-12.325-8.384-20.21-8.384c-7.828,0-14.906,3.137-20.043,8.189l-0.195,0.194c-5.163,5.164-8.383,12.325-8.383,20.21    c0,7.884,3.193,15.019,8.383,20.238C389.003,419.567,396.164,422.759,404.076,422.759z M415.152,428.118    c-3.497,1.137-7.217,1.775-11.076,1.775c-4.246,0-8.3-0.749-12.048-2.108v13.27l10.799,10.41l12.325-11.021V428.118z     M358.938,400.912V280.236H179.242v120.676h55.382c-0.444-2.193-0.639-4.441-0.639-6.746c0-9.827,3.998-18.766,10.438-25.205    l0.112-0.113c6.44-6.412,15.351-10.383,25.151-10.383c9.826,0,18.766,4,25.234,10.467c6.468,6.469,10.466,15.379,10.466,25.234    c0,2.305-0.223,4.553-0.639,6.746H358.938z M298.28,394.166c0-7.885-3.193-15.046-8.385-20.21    c-5.163-5.19-12.326-8.384-20.209-8.384c-7.884,0-15.019,3.193-20.238,8.355c-5.164,5.192-8.356,12.354-8.356,20.238    c0,7.884,3.166,15.019,8.356,20.238c5.164,5.163,12.326,8.354,20.238,8.354c7.883,0,15.018-3.163,20.209-8.354    C295.087,409.24,298.28,402.078,298.28,394.166z M280.763,428.118c-3.498,1.137-7.218,1.775-11.076,1.775    c-4.248,0-8.301-0.749-12.049-2.108v13.27l10.8,10.41l12.325-11.021V428.118z M289.951,441.359l-19.238,17.185    c-1.305,1.249-3.387,1.277-4.72,0l-17.85-17.156l-35.95,15.657v28.954h113.82v-28.954L289.951,441.359z M154.951,441.359    l-19.21,17.185c-1.305,1.249-3.415,1.277-4.719,0l-17.85-17.156l-35.979,15.657v28.954h113.819v-28.954L154.951,441.359z     M134.685,422.759c7.884,0,15.019-3.163,20.21-8.354c5.192-5.164,8.384-12.326,8.384-20.238c0-7.885-3.192-15.046-8.384-20.21    c-5.163-5.19-12.298-8.384-20.21-8.384c-7.801,0-14.879,3.137-20.043,8.189l-0.167,0.194c-5.191,5.164-8.384,12.325-8.384,20.21    c0,7.884,3.165,15.019,8.356,20.238C119.639,419.567,126.773,422.759,134.685,422.759z M145.762,428.118    c-3.47,1.137-7.218,1.775-11.077,1.775c-4.219,0-8.273-0.749-12.048-2.108v13.27l10.827,10.41l12.298-11.021V428.118z     M176.771,273.407h184.637l33.951-20.517H142.819L176.771,273.407z M268.104,156.283l19.766-17.711v-21.182    c-5.58,2.109-11.604,3.248-17.934,3.248c-6.828,0-13.353-1.359-19.321-3.803v22.596L268.104,156.283z M269.936,113.531    c12.104,0,23.042-4.885,30.954-12.824c7.939-7.913,12.825-18.85,12.825-30.926c0-2.887-0.277-5.719-0.805-8.439    c-6.58-0.166-12.854-1.582-18.601-4.025c-5.219-2.221-9.994-5.303-14.158-9.051c-1.693,1.611-3.525,3.109-5.441,4.469    c-8.3,5.887-18.432,9.357-29.37,9.357c-3.748,0-7.44-0.416-11.05-1.222c-2.304-0.5-4.553-1.195-6.745-1.999    c-0.889,3.498-1.361,7.135-1.361,10.91c0,11.993,4.831,22.875,12.632,30.758l0.194,0.168    C246.922,108.646,257.86,113.531,269.936,113.531z M245.34,54.984c9.411,0,18.127-2.971,25.262-8.022    c2.442-1.722,4.691-3.692,6.718-5.857c0.11-0.139,0.222-0.251,0.333-0.361c1.943-2.109,3.664-4.441,5.219-6.968    c0.944-1.584,1.806-3.248,2.555-4.97c-4.803-1.804-10.021-2.804-15.491-2.804c-9.383,0-18.127,2.971-25.262,8.021    c-2.026,1.416-3.942,3.027-5.663,4.803c-3.831,3.805-6.94,8.328-9.161,13.354c1.915,0.722,3.914,1.331,5.969,1.775    C238.844,54.623,242.036,54.984,245.34,54.984z M291.867,31.222c-0.86,1.942-1.833,3.803-2.915,5.579    c-1.166,1.943-2.498,3.832-3.97,5.636c3.554,3.192,7.661,5.829,12.132,7.718c4.247,1.832,8.883,2.971,13.741,3.357    c-1.721-4.551-4.22-8.743-7.245-12.381C300.306,37.162,296.337,33.803,291.867,31.222z M264.744,162.474l-19.904-19.155    l-2.499-2.357l-1.166,22.541h24.652c-0.056-0.028-0.111-0.084-0.166-0.139L264.744,162.474z M293.311,142.82l-22.292,19.932    l-0.638,0.611c-0.057,0.055-0.112,0.11-0.195,0.139h26.872l-0.777-23.318L293.311,142.82z M370.318,142.486    c-1.331-1.305-1.331-3.471,0-4.803c1.307-1.333,3.471-1.333,4.803-0.027l13.465,13.464c0.666,0.667,1,1.555,1,2.415l0.027,53.023    h44.362v6.829h-29.789v32.675H134.019v-32.675h-29.788v-6.829h43.529v-53.023c0-0.86,0.333-1.748,1-2.415l13.464-13.464    c1.333-1.306,3.498-1.306,4.83,0.027c1.306,1.332,1.306,3.498-0.027,4.803l-12.437,12.465v51.607h29.149V161.28l51.913-22.624    l-1.471,28.26c0,1.887,1.526,3.416,3.415,3.416h63.1c1.86-0.057,3.359-1.64,3.305-3.5l-0.973-27.955l51.442,22.403v45.278h28.314    v-51.607L370.318,142.486z"/>
</g>
</g>
<g id="Layer_1"/>
</svg>