<?xml version="1.0" encoding="iso-8859-1"?>
<!-- Uploaded to: SVG Repo, www.svgrepo.com, Generator: SVG Repo Mixer Tools -->
<svg height="800px" width="800px" version="1.1" id="Layer_1" xmlns="http://www.w3.org/2000/svg" xmlns:xlink="http://www.w3.org/1999/xlink" 
	 viewBox="0 0 512 512" xml:space="preserve">
<g transform="translate(1 1)">
	<g>
		<path style="fill:#FFE100;" d="M82.934,255H66.148c-5.036,0-8.393-3.357-8.393-8.393c0-5.036,3.357-8.393,8.393-8.393h16.787
			c5.036,0,8.393,3.357,8.393,8.393C91.328,251.643,87.97,255,82.934,255z"/>
		<path style="fill:#FFE100;" d="M82.934,221.426H66.148c-5.036,0-8.393-3.357-8.393-8.393s3.357-8.393,8.393-8.393h16.787
			c5.036,0,8.393,3.357,8.393,8.393S87.97,221.426,82.934,221.426z"/>
		<path style="fill:#FFE100;" d="M82.934,187.852H66.148c-5.036,0-8.393-3.357-8.393-8.393c0-5.036,3.357-8.393,8.393-8.393h16.787
			c5.036,0,8.393,3.357,8.393,8.393C91.328,184.495,87.97,187.852,82.934,187.852z"/>
		<path style="fill:#FFE100;" d="M82.934,154.279H66.148c-5.036,0-8.393-3.357-8.393-8.393s3.357-8.393,8.393-8.393h16.787
			c5.036,0,8.393,3.357,8.393,8.393S87.97,154.279,82.934,154.279z"/>
		<path style="fill:#FFE100;" d="M82.934,120.705H66.148c-5.036,0-8.393-3.357-8.393-8.393c0-5.036,3.357-8.393,8.393-8.393h16.787
			c5.036,0,8.393,3.357,8.393,8.393C91.328,117.348,87.97,120.705,82.934,120.705z"/>
		<path style="fill:#FFE100;" d="M82.934,87.131H66.148c-5.036,0-8.393-3.357-8.393-8.393c0-5.036,3.357-8.393,8.393-8.393h16.787
			c5.036,0,8.393,3.357,8.393,8.393S87.97,87.131,82.934,87.131z"/>
		<path style="fill:#FFE100;" d="M82.934,53.557H66.148c-5.036,0-8.393-3.357-8.393-8.393s3.357-8.393,8.393-8.393h16.787
			c5.036,0,8.393,3.357,8.393,8.393S87.97,53.557,82.934,53.557z"/>
		<path style="fill:#FFE100;" d="M32.574,506.803c-5.036,0-8.393-3.357-8.393-8.393V19.984c0-5.036,3.357-8.393,8.393-8.393
			s8.393,3.357,8.393,8.393V498.41C40.967,503.446,37.61,506.803,32.574,506.803z"/>
		<path style="fill:#FFE100;" d="M502.607,498.41H15.787c-5.036,0-8.393-3.357-8.393-8.393c0-5.036,3.357-8.393,8.393-8.393h486.82
			c5.036,0,8.393,3.357,8.393,8.393C511,495.052,507.643,498.41,502.607,498.41z"/>
		<path style="fill:#FFE100;" d="M301.164,448.049c-15.108,0-28.538-5.875-40.289-18.466
			c-57.915-58.754-52.039-250.964-52.039-258.518c0-18.466-15.108-33.574-33.574-33.574c-5.036,0-8.393-3.357-8.393-8.393
			c0-5.036,3.357-8.393,8.393-8.393c27.698,0,50.361,22.662,50.361,50.361c0,2.518-5.036,193.049,47.003,246.767
			c8.393,8.393,17.626,13.43,28.538,13.43s20.144-4.197,28.538-13.43c52.039-53.718,47.003-244.249,47.003-246.767
			c0-27.698,22.662-50.361,50.361-50.361c5.036,0,8.393,3.357,8.393,8.393c0,5.036-3.357,8.393-8.393,8.393
			c-18.466,0-33.574,15.108-33.574,33.574c0,7.554,5.875,199.764-52.039,258.518C329.702,442.174,316.272,448.049,301.164,448.049z"
			/>
		<path style="fill:#FFE100;" d="M460.639,255h-293.77c-5.036,0-8.393-3.357-8.393-8.393c0-5.036,3.357-8.393,8.393-8.393h293.77
			c5.036,0,8.393,3.357,8.393,8.393C469.033,251.643,465.675,255,460.639,255z"/>
		<path style="fill:#FFE100;" d="M469.033,179.459c-5.036,0-8.393-3.357-8.393-8.393c0-18.466-15.108-33.574-33.574-33.574
			c-5.036,0-8.393-3.357-8.393-8.393c0-5.036,3.357-8.393,8.393-8.393c27.698,0,50.361,22.662,50.361,50.361
			C477.426,176.102,474.069,179.459,469.033,179.459z"/>
		<path style="fill:#FFE100;" d="M133.295,179.459c-5.036,0-8.393-3.357-8.393-8.393c0-27.698,22.662-50.361,50.361-50.361
			c5.036,0,8.393,3.357,8.393,8.393c0,5.036-3.357,8.393-8.393,8.393c-18.466,0-33.574,15.108-33.574,33.574
			C141.689,176.102,138.331,179.459,133.295,179.459z"/>
		<path style="fill:#FFE100;" d="M460.639,255c-2.518,0-4.197-0.839-5.875-2.518l-25.18-25.18c-3.357-3.357-3.357-8.393,0-11.751
			c3.357-3.357,8.393-3.357,11.751,0l25.18,25.18c3.357,3.357,3.357,8.393,0,11.751C464.836,254.161,463.157,255,460.639,255z"/>
		<path style="fill:#FFE100;" d="M435.459,280.18c-2.518,0-4.197-0.839-5.875-2.518c-3.357-3.357-3.357-8.393,0-11.751l25.18-25.18
			c3.357-3.357,8.393-3.357,11.751,0s3.357,8.393,0,11.751l-25.18,25.18C439.656,279.341,437.977,280.18,435.459,280.18z"/>
	</g>
	<path d="M24.18,506.803c-5.036,0-8.393-3.357-8.393-8.393V11.59c0-5.036,3.357-8.393,8.393-8.393s8.393,3.357,8.393,8.393v486.82
		C32.574,503.446,29.216,506.803,24.18,506.803z"/>
	<path d="M494.213,490.016H7.393c-5.036,0-8.393-3.357-8.393-8.393s3.357-8.393,8.393-8.393h486.82c5.036,0,8.393,3.357,8.393,8.393
		S499.249,490.016,494.213,490.016z"/>
	<path d="M74.541,246.607H57.754c-5.036,0-8.393-3.357-8.393-8.393s3.357-8.393,8.393-8.393h16.787c5.036,0,8.393,3.357,8.393,8.393
		S79.577,246.607,74.541,246.607z"/>
	<path d="M74.541,213.033H57.754c-5.036,0-8.393-3.357-8.393-8.393c0-5.036,3.357-8.393,8.393-8.393h16.787
		c5.036,0,8.393,3.357,8.393,8.393C82.934,209.675,79.577,213.033,74.541,213.033z"/>
	<path d="M74.541,179.459H57.754c-5.036,0-8.393-3.357-8.393-8.393s3.357-8.393,8.393-8.393h16.787c5.036,0,8.393,3.357,8.393,8.393
		S79.577,179.459,74.541,179.459z"/>
	<path d="M74.541,145.885H57.754c-5.036,0-8.393-3.357-8.393-8.393c0-5.036,3.357-8.393,8.393-8.393h16.787
		c5.036,0,8.393,3.357,8.393,8.393C82.934,142.528,79.577,145.885,74.541,145.885z"/>
	<path d="M74.541,112.311H57.754c-5.036,0-8.393-3.357-8.393-8.393c0-5.036,3.357-8.393,8.393-8.393h16.787
		c5.036,0,8.393,3.357,8.393,8.393C82.934,108.954,79.577,112.311,74.541,112.311z"/>
	<path d="M74.541,78.738H57.754c-5.036,0-8.393-3.357-8.393-8.393s3.357-8.393,8.393-8.393h16.787c5.036,0,8.393,3.357,8.393,8.393
		S79.577,78.738,74.541,78.738z"/>
	<path d="M74.541,45.164H57.754c-5.036,0-8.393-3.357-8.393-8.393s3.357-8.393,8.393-8.393h16.787c5.036,0,8.393,3.357,8.393,8.393
		S79.577,45.164,74.541,45.164z"/>
	<path d="M292.77,439.656c-15.108,0-28.538-5.875-40.289-18.466c-57.915-58.754-52.039-250.964-52.039-258.518
		c0-18.466-15.108-33.574-33.574-33.574c-5.036,0-8.393-3.357-8.393-8.393c0-5.036,3.357-8.393,8.393-8.393
		c27.698,0,50.361,22.662,50.361,50.361c0,2.518-5.036,193.049,47.003,246.767c8.393,8.393,17.626,13.43,28.538,13.43
		s20.144-4.197,28.538-13.43c52.039-53.718,47.003-244.249,47.003-246.767c0-27.698,22.662-50.361,50.361-50.361
		c5.036,0,8.393,3.357,8.393,8.393c0,5.036-3.357,8.393-8.393,8.393c-18.466,0-33.574,15.108-33.574,33.574
		c0,7.554,5.875,199.764-52.039,258.518C321.308,433.78,307.879,439.656,292.77,439.656z"/>
	<path d="M452.246,246.607h-293.77c-5.036,0-8.393-3.357-8.393-8.393s3.357-8.393,8.393-8.393h293.77
		c5.036,0,8.393,3.357,8.393,8.393S457.282,246.607,452.246,246.607z"/>
	<path d="M460.639,171.066c-5.036,0-8.393-3.357-8.393-8.393c0-18.466-15.108-33.574-33.574-33.574
		c-5.036,0-8.393-3.357-8.393-8.393c0-5.036,3.357-8.393,8.393-8.393c27.698,0,50.361,22.662,50.361,50.361
		C469.033,167.708,465.675,171.066,460.639,171.066z"/>
	<path d="M124.902,171.066c-5.036,0-8.393-3.357-8.393-8.393c0-27.698,22.662-50.361,50.361-50.361c5.036,0,8.393,3.357,8.393,8.393
		c0,5.036-3.357,8.393-8.393,8.393c-18.466,0-33.574,15.108-33.574,33.574C133.295,167.708,129.938,171.066,124.902,171.066z"/>
	<path d="M452.246,246.607c-2.518,0-4.197-0.839-5.875-2.518l-25.18-25.18c-3.357-3.357-3.357-8.393,0-11.751s8.393-3.357,11.751,0
		l25.18,25.18c3.357,3.357,3.357,8.393,0,11.751C456.443,245.767,454.764,246.607,452.246,246.607z"/>
	<path d="M427.066,271.787c-2.518,0-4.197-0.839-5.875-2.518c-3.357-3.357-3.357-8.393,0-11.751l25.18-25.18
		c3.357-3.357,8.393-3.357,11.751,0c3.357,3.357,3.357,8.393,0,11.751l-25.18,25.18
		C431.262,270.948,429.584,271.787,427.066,271.787z"/>
</g>
</svg>