<svg xmlns="http://www.w3.org/2000/svg" xmlns:xlink="http://www.w3.org/1999/xlink" width="500" zoomAndPan="magnify" viewBox="0 0 375 374.999991" height="500" preserveAspectRatio="xMidYMid meet" version="1.0"><defs><g/></defs><rect x="-37.5" width="450" fill="#ffffff" y="-37.499999" height="449.999989" fill-opacity="1"/><rect x="-37.5" width="450" fill="#ffffff" y="-37.499999" height="449.999989" fill-opacity="1"/><g fill="#004aad" fill-opacity="1"><g transform="translate(49.153625, 194.979939)"><g/></g></g><g fill="#004aad" fill-opacity="1"><g transform="translate(59.35413, 194.979939)"><g><path d="M 26.21875 -20.4375 C 26.21875 -19.019531 25.796875 -17.734375 24.953125 -16.578125 C 24.109375 -15.421875 22.863281 -14.503906 21.21875 -13.828125 C 19.582031 -13.148438 17.617188 -12.8125 15.328125 -12.8125 L 11.25 -12.8125 L 11.25 -4.234375 C 11.25 -3.234375 11.378906 -2.488281 11.640625 -2 C 11.898438 -1.507812 12.28125 -1.179688 12.78125 -1.015625 C 13.289062 -0.859375 14.019531 -0.765625 14.96875 -0.734375 L 14.96875 0 L 0.734375 0 L 0.734375 -0.734375 C 1.765625 -0.765625 2.550781 -0.851562 3.09375 -1 C 3.644531 -1.144531 4.054688 -1.460938 4.328125 -1.953125 C 4.597656 -2.441406 4.734375 -3.203125 4.734375 -4.234375 L 4.734375 -24.015625 C 4.734375 -25.328125 4.40625 -26.195312 3.75 -26.625 C 3.09375 -27.0625 2.085938 -27.28125 0.734375 -27.28125 L 0.734375 -28.015625 L 15.859375 -28.015625 C 17.546875 -28.015625 19.179688 -27.726562 20.765625 -27.15625 C 22.359375 -26.582031 23.664062 -25.722656 24.6875 -24.578125 C 25.707031 -23.441406 26.21875 -22.0625 26.21875 -20.4375 Z M 19.203125 -20.3125 C 19.203125 -22.050781 18.929688 -23.367188 18.390625 -24.265625 C 17.847656 -25.160156 17.132812 -25.757812 16.25 -26.0625 C 15.363281 -26.363281 14.253906 -26.515625 12.921875 -26.515625 L 11.25 -26.515625 L 11.25 -14.3125 L 13.90625 -14.3125 C 15.425781 -14.3125 16.6875 -14.785156 17.6875 -15.734375 C 18.695312 -16.691406 19.203125 -18.21875 19.203125 -20.3125 Z M 19.203125 -20.3125 "/></g></g></g><g fill="#004aad" fill-opacity="1"><g transform="translate(86.556371, 194.979939)"><g><path d="M 16.46875 -27.28125 C 15.082031 -27.25 14.078125 -27.171875 13.453125 -27.046875 C 12.828125 -26.929688 12.359375 -26.628906 12.046875 -26.140625 C 11.734375 -25.648438 11.578125 -24.847656 11.578125 -23.734375 L 11.578125 -3.75 C 11.578125 -2.957031 11.773438 -2.382812 12.171875 -2.03125 C 12.566406 -1.6875 13.195312 -1.515625 14.0625 -1.515625 L 17.046875 -1.515625 C 19.328125 -1.515625 21.140625 -2.164062 22.484375 -3.46875 C 23.835938 -4.769531 24.835938 -6.796875 25.484375 -9.546875 L 26.21875 -9.546875 L 25.25 0 L 0.65625 0 L 0.65625 -0.734375 C 1.851562 -0.765625 2.75 -0.867188 3.34375 -1.046875 C 3.9375 -1.222656 4.367188 -1.550781 4.640625 -2.03125 C 4.921875 -2.519531 5.0625 -3.269531 5.0625 -4.28125 L 5.0625 -23.734375 C 5.0625 -24.847656 4.90625 -25.648438 4.59375 -26.140625 C 4.28125 -26.628906 3.84375 -26.929688 3.28125 -27.046875 C 2.726562 -27.171875 1.851562 -27.25 0.65625 -27.28125 L 0.65625 -28.015625 L 16.46875 -28.015625 Z M 16.46875 -27.28125 "/></g></g></g><g fill="#004aad" fill-opacity="1"><g transform="translate(113.758611, 194.979939)"><g><path d="M 5.171875 -5.59375 L 14.640625 -28.46875 L 15.046875 -28.46875 L 24.46875 -5.5 C 25.09375 -3.957031 25.707031 -2.773438 26.3125 -1.953125 C 26.925781 -1.140625 27.722656 -0.734375 28.703125 -0.734375 L 28.703125 0 L 15.625 0 L 15.625 -0.734375 C 16.925781 -0.765625 17.789062 -0.867188 18.21875 -1.046875 C 18.65625 -1.222656 18.875 -1.625 18.875 -2.25 C 18.875 -2.4375 18.828125 -2.648438 18.734375 -2.890625 C 18.640625 -3.140625 18.566406 -3.34375 18.515625 -3.5 L 16.765625 -7.90625 L 7.796875 -7.90625 L 6.53125 -4.859375 C 6.144531 -4.097656 5.953125 -3.429688 5.953125 -2.859375 C 5.953125 -2.015625 6.265625 -1.445312 6.890625 -1.15625 C 7.515625 -0.875 8.398438 -0.734375 9.546875 -0.734375 L 9.546875 0 L 0.578125 0 L 0.578125 -0.734375 C 1.492188 -0.816406 2.316406 -1.238281 3.046875 -2 C 3.785156 -2.757812 4.492188 -3.957031 5.171875 -5.59375 Z M 16.15625 -9.421875 L 12.28125 -18.796875 L 8.40625 -9.421875 Z M 16.15625 -9.421875 "/></g></g></g><g fill="#004aad" fill-opacity="1"><g transform="translate(143.081563, 194.979939)"><g><path d="M 16.4375 -28.625 C 17.851562 -28.625 19.019531 -28.5 19.9375 -28.25 C 20.863281 -28.007812 21.859375 -27.671875 22.921875 -27.234375 C 23.023438 -27.179688 23.300781 -27.066406 23.75 -26.890625 C 24.195312 -26.710938 24.597656 -26.625 24.953125 -26.625 C 25.992188 -26.625 26.632812 -27.28125 26.875 -28.59375 L 27.6875 -28.59375 L 27.6875 -19.203125 L 26.875 -19.203125 C 26.65625 -20.753906 26.101562 -22.109375 25.21875 -23.265625 C 24.332031 -24.421875 23.265625 -25.300781 22.015625 -25.90625 C 20.765625 -26.519531 19.488281 -26.828125 18.1875 -26.828125 C 16.34375 -26.828125 14.734375 -26.273438 13.359375 -25.171875 C 11.984375 -24.078125 10.9375 -22.550781 10.21875 -20.59375 C 9.5 -18.632812 9.140625 -16.421875 9.140625 -13.953125 C 9.140625 -9.953125 9.925781 -6.816406 11.5 -4.546875 C 13.070312 -2.273438 15.25 -1.140625 18.03125 -1.140625 C 19.789062 -1.140625 21.378906 -1.5625 22.796875 -2.40625 C 24.210938 -3.25 25.65625 -4.523438 27.125 -6.234375 L 27.125 -4 C 25.59375 -2.394531 24.003906 -1.226562 22.359375 -0.5 C 20.722656 0.21875 18.84375 0.578125 16.71875 0.578125 C 13.726562 0.578125 11.109375 -0.046875 8.859375 -1.296875 C 6.617188 -2.554688 4.894531 -4.257812 3.6875 -6.40625 C 2.476562 -8.550781 1.875 -10.929688 1.875 -13.546875 C 1.875 -16.234375 2.53125 -18.734375 3.84375 -21.046875 C 5.164062 -23.359375 6.941406 -25.195312 9.171875 -26.5625 C 11.398438 -27.9375 13.820312 -28.625 16.4375 -28.625 Z M 16.4375 -28.625 "/></g></g></g><g fill="#004aad" fill-opacity="1"><g transform="translate(172.404514, 194.979939)"><g><path d="M 24.34375 -20.03125 L 23.609375 -20.03125 C 23.234375 -22.144531 22.472656 -23.753906 21.328125 -24.859375 C 20.179688 -25.960938 18.6875 -26.515625 16.84375 -26.515625 L 11.34375 -26.515625 L 11.34375 -15.046875 L 12.1875 -15.046875 C 13.226562 -15.046875 14.078125 -15.207031 14.734375 -15.53125 C 15.398438 -15.863281 15.960938 -16.5 16.421875 -17.4375 C 16.890625 -18.375 17.234375 -19.710938 17.453125 -21.453125 L 18.1875 -21.453125 L 18.1875 -7.21875 L 17.453125 -7.21875 C 17.148438 -9.6875 16.570312 -11.359375 15.71875 -12.234375 C 14.863281 -13.109375 13.742188 -13.546875 12.359375 -13.546875 L 11.34375 -13.546875 L 11.34375 -4.53125 C 11.34375 -3.351562 11.515625 -2.554688 11.859375 -2.140625 C 12.210938 -1.722656 12.894531 -1.515625 13.90625 -1.515625 L 16.84375 -1.515625 C 19.238281 -1.515625 21.113281 -2.160156 22.46875 -3.453125 C 23.832031 -4.742188 24.863281 -6.472656 25.5625 -8.640625 L 26.296875 -8.640625 L 25.046875 0 L 0.734375 0 L 0.734375 -0.734375 L 1.671875 -0.734375 C 2.617188 -0.734375 3.316406 -0.875 3.765625 -1.15625 C 4.210938 -1.445312 4.5 -1.820312 4.625 -2.28125 C 4.75 -2.75 4.8125 -3.375 4.8125 -4.15625 L 4.8125 -23.9375 C 4.8125 -25.269531 4.503906 -26.148438 3.890625 -26.578125 C 3.285156 -27.015625 2.234375 -27.25 0.734375 -27.28125 L 0.734375 -28.015625 L 24.34375 -28.015625 Z M 24.34375 -20.03125 "/></g></g></g><g fill="#004aad" fill-opacity="1"><g transform="translate(199.606755, 194.979939)"><g><path d="M 20.265625 -8.765625 L 28.90625 -28.015625 L 39.796875 -28.015625 L 39.796875 -27.28125 C 38.878906 -27.25 38.164062 -27.164062 37.65625 -27.03125 C 37.15625 -26.894531 36.773438 -26.597656 36.515625 -26.140625 C 36.253906 -25.679688 36.125 -24.988281 36.125 -24.0625 L 36.125 -4.28125 C 36.125 -3.21875 36.253906 -2.4375 36.515625 -1.9375 C 36.773438 -1.4375 37.148438 -1.117188 37.640625 -0.984375 C 38.128906 -0.847656 38.847656 -0.765625 39.796875 -0.734375 L 39.796875 0 L 25.609375 0 L 25.609375 -0.734375 C 26.671875 -0.765625 27.472656 -0.851562 28.015625 -1 C 28.554688 -1.144531 28.957031 -1.460938 29.21875 -1.953125 C 29.476562 -2.441406 29.609375 -3.203125 29.609375 -4.234375 L 29.609375 -25.890625 L 29.53125 -25.890625 L 17.9375 0 L 17.375 0 L 5.828125 -25.6875 L 5.75 -25.6875 L 5.75 -4.078125 C 5.75 -2.929688 6.070312 -2.085938 6.71875 -1.546875 C 7.375 -1.003906 8.367188 -0.734375 9.703125 -0.734375 L 9.703125 0 L 0.609375 0 L 0.609375 -0.734375 C 1.835938 -0.734375 2.765625 -1.054688 3.390625 -1.703125 C 4.015625 -2.359375 4.328125 -3.191406 4.328125 -4.203125 L 4.328125 -23.734375 C 4.328125 -24.710938 4.207031 -25.453125 3.96875 -25.953125 C 3.738281 -26.460938 3.363281 -26.800781 2.84375 -26.96875 C 2.332031 -27.144531 1.585938 -27.25 0.609375 -27.28125 L 0.609375 -28.015625 L 11.578125 -28.015625 Z M 20.265625 -8.765625 "/></g></g></g><g fill="#004aad" fill-opacity="1"><g transform="translate(239.98189, 194.979939)"><g><path d="M 24.34375 -20.03125 L 23.609375 -20.03125 C 23.234375 -22.144531 22.472656 -23.753906 21.328125 -24.859375 C 20.179688 -25.960938 18.6875 -26.515625 16.84375 -26.515625 L 11.34375 -26.515625 L 11.34375 -15.046875 L 12.1875 -15.046875 C 13.226562 -15.046875 14.078125 -15.207031 14.734375 -15.53125 C 15.398438 -15.863281 15.960938 -16.5 16.421875 -17.4375 C 16.890625 -18.375 17.234375 -19.710938 17.453125 -21.453125 L 18.1875 -21.453125 L 18.1875 -7.21875 L 17.453125 -7.21875 C 17.148438 -9.6875 16.570312 -11.359375 15.71875 -12.234375 C 14.863281 -13.109375 13.742188 -13.546875 12.359375 -13.546875 L 11.34375 -13.546875 L 11.34375 -4.53125 C 11.34375 -3.351562 11.515625 -2.554688 11.859375 -2.140625 C 12.210938 -1.722656 12.894531 -1.515625 13.90625 -1.515625 L 16.84375 -1.515625 C 19.238281 -1.515625 21.113281 -2.160156 22.46875 -3.453125 C 23.832031 -4.742188 24.863281 -6.472656 25.5625 -8.640625 L 26.296875 -8.640625 L 25.046875 0 L 0.734375 0 L 0.734375 -0.734375 L 1.671875 -0.734375 C 2.617188 -0.734375 3.316406 -0.875 3.765625 -1.15625 C 4.210938 -1.445312 4.5 -1.820312 4.625 -2.28125 C 4.75 -2.75 4.8125 -3.375 4.8125 -4.15625 L 4.8125 -23.9375 C 4.8125 -25.269531 4.503906 -26.148438 3.890625 -26.578125 C 3.285156 -27.015625 2.234375 -27.25 0.734375 -27.28125 L 0.734375 -28.015625 L 24.34375 -28.015625 Z M 24.34375 -20.03125 "/></g></g></g><g fill="#004aad" fill-opacity="1"><g transform="translate(267.184121, 194.979939)"><g><path d="M 25.9375 -9.828125 L 25.9375 -23.734375 C 25.9375 -25.015625 25.601562 -25.925781 24.9375 -26.46875 C 24.269531 -27.007812 23.203125 -27.28125 21.734375 -27.28125 L 21.734375 -28.015625 L 30.875 -28.015625 L 30.875 -27.28125 C 29.675781 -27.28125 28.789062 -26.953125 28.21875 -26.296875 C 27.644531 -25.648438 27.359375 -24.796875 27.359375 -23.734375 L 27.359375 0.40625 L 26.671875 0.40625 L 6 -22.921875 L 6 -4.125 C 6 -2.84375 6.335938 -1.957031 7.015625 -1.46875 C 7.691406 -0.976562 8.738281 -0.734375 10.15625 -0.734375 L 10.4375 -0.734375 L 10.4375 0 L 0.609375 0 L 0.609375 -0.734375 C 3.242188 -0.734375 4.5625 -1.820312 4.5625 -4 L 4.5625 -24.546875 C 4.40625 -24.710938 4.070312 -25.070312 3.5625 -25.625 C 3.0625 -26.1875 2.578125 -26.59375 2.109375 -26.84375 C 1.648438 -27.101562 1.148438 -27.25 0.609375 -27.28125 L 0.609375 -28.015625 L 9.90625 -28.015625 Z M 25.9375 -9.828125 "/></g></g></g><g fill="#004aad" fill-opacity="1"><g transform="translate(298.627775, 194.979939)"><g><path d="M 26.0625 -20.671875 L 25.328125 -20.671875 C 25.140625 -22.609375 24.535156 -24.066406 23.515625 -25.046875 C 22.492188 -26.023438 21.332031 -26.515625 20.03125 -26.515625 L 16.84375 -26.515625 L 16.84375 -4.40625 C 16.84375 -3.394531 16.976562 -2.628906 17.25 -2.109375 C 17.519531 -1.597656 17.941406 -1.25 18.515625 -1.0625 C 19.085938 -0.875 19.890625 -0.765625 20.921875 -0.734375 L 20.921875 0 L 6.234375 0 L 6.234375 -0.734375 C 7.273438 -0.734375 8.070312 -0.804688 8.625 -0.953125 C 9.1875 -1.109375 9.609375 -1.441406 9.890625 -1.953125 C 10.171875 -2.472656 10.3125 -3.265625 10.3125 -4.328125 L 10.3125 -26.515625 L 6.8125 -26.515625 C 5.582031 -26.515625 4.492188 -25.972656 3.546875 -24.890625 C 2.597656 -23.816406 2.023438 -22.410156 1.828125 -20.671875 L 1.09375 -20.671875 L 1.09375 -28.015625 L 26.0625 -28.015625 Z M 26.0625 -20.671875 "/></g></g></g><g fill="#004aad" fill-opacity="1"><g transform="translate(40.874677, 251.880977)"><g><path d="M 16.5625 -28.625 C 17.96875 -28.625 19.175781 -28.492188 20.1875 -28.234375 C 21.195312 -27.984375 22.21875 -27.640625 23.25 -27.203125 C 24.03125 -26.878906 24.585938 -26.71875 24.921875 -26.71875 C 25.429688 -26.71875 25.816406 -26.863281 26.078125 -27.15625 C 26.335938 -27.457031 26.578125 -27.921875 26.796875 -28.546875 L 27.609375 -28.546875 L 27.609375 -19.046875 L 26.796875 -19.046875 C 25.921875 -21.578125 24.625 -23.539062 22.90625 -24.9375 C 21.195312 -26.332031 19.285156 -27.03125 17.171875 -27.03125 C 14.609375 -27.03125 12.613281 -25.820312 11.1875 -23.40625 C 9.757812 -20.988281 9.046875 -17.660156 9.046875 -13.421875 C 9.046875 -8.222656 10.039062 -4.726562 12.03125 -2.9375 C 12.789062 -2.226562 13.625 -1.703125 14.53125 -1.359375 C 15.445312 -1.023438 16.328125 -0.859375 17.171875 -0.859375 C 18.441406 -0.859375 19.742188 -1.15625 21.078125 -1.75 L 21.078125 -8.609375 C 21.078125 -10.296875 20.003906 -11.140625 17.859375 -11.140625 L 17.578125 -11.140625 L 17.578125 -11.875 L 30.875 -11.875 L 30.875 -11.140625 C 28.695312 -11.140625 27.609375 -10.304688 27.609375 -8.640625 L 27.609375 -1.75 C 26.242188 -1.019531 24.617188 -0.445312 22.734375 -0.03125 C 20.847656 0.375 18.9375 0.578125 17 0.578125 C 13.875 0.578125 11.160156 -0.03125 8.859375 -1.25 C 6.566406 -2.476562 4.816406 -4.15625 3.609375 -6.28125 C 2.398438 -8.40625 1.796875 -10.769531 1.796875 -13.375 C 1.796875 -16.125 2.453125 -18.664062 3.765625 -21 C 5.085938 -23.34375 6.875 -25.195312 9.125 -26.5625 C 11.382812 -27.9375 13.863281 -28.625 16.5625 -28.625 Z M 16.5625 -28.625 "/></g></g></g><g fill="#004aad" fill-opacity="1"><g transform="translate(72.31834, 251.880977)"><g><path d="M 5.171875 -5.59375 L 14.640625 -28.46875 L 15.046875 -28.46875 L 24.46875 -5.5 C 25.09375 -3.957031 25.707031 -2.773438 26.3125 -1.953125 C 26.925781 -1.140625 27.722656 -0.734375 28.703125 -0.734375 L 28.703125 0 L 15.625 0 L 15.625 -0.734375 C 16.925781 -0.765625 17.789062 -0.867188 18.21875 -1.046875 C 18.65625 -1.222656 18.875 -1.625 18.875 -2.25 C 18.875 -2.4375 18.828125 -2.648438 18.734375 -2.890625 C 18.640625 -3.140625 18.566406 -3.34375 18.515625 -3.5 L 16.765625 -7.90625 L 7.796875 -7.90625 L 6.53125 -4.859375 C 6.144531 -4.097656 5.953125 -3.429688 5.953125 -2.859375 C 5.953125 -2.015625 6.265625 -1.445312 6.890625 -1.15625 C 7.515625 -0.875 8.398438 -0.734375 9.546875 -0.734375 L 9.546875 0 L 0.578125 0 L 0.578125 -0.734375 C 1.492188 -0.816406 2.316406 -1.238281 3.046875 -2 C 3.785156 -2.757812 4.492188 -3.957031 5.171875 -5.59375 Z M 16.15625 -9.421875 L 12.28125 -18.796875 L 8.40625 -9.421875 Z M 16.15625 -9.421875 "/></g></g></g><g fill="#004aad" fill-opacity="1"><g transform="translate(101.641291, 251.880977)"><g><path d="M 14.4375 -27.28125 C 13.238281 -27.28125 12.367188 -27.046875 11.828125 -26.578125 C 11.285156 -26.117188 11.015625 -25.265625 11.015625 -24.015625 L 11.015625 -7.375 C 11.015625 -5.664062 11.554688 -4.21875 12.640625 -3.03125 C 13.734375 -1.851562 15.421875 -1.265625 17.703125 -1.265625 C 20.367188 -1.265625 22.378906 -2.070312 23.734375 -3.6875 C 25.097656 -5.3125 25.78125 -7.332031 25.78125 -9.75 L 25.78125 -23.734375 C 25.78125 -24.984375 25.503906 -25.882812 24.953125 -26.4375 C 24.410156 -27 23.515625 -27.28125 22.265625 -27.28125 L 22.265625 -28.015625 L 30.875 -28.015625 L 30.875 -27.28125 C 29.625 -27.25 28.710938 -26.96875 28.140625 -26.4375 C 27.566406 -25.914062 27.28125 -24.921875 27.28125 -23.453125 L 27.28125 -9.90625 C 27.28125 -6.507812 26.300781 -3.910156 24.34375 -2.109375 C 22.382812 -0.316406 19.570312 0.578125 15.90625 0.578125 C 13.320312 0.578125 11.179688 0.160156 9.484375 -0.671875 C 7.785156 -1.503906 6.523438 -2.613281 5.703125 -4 C 4.890625 -5.382812 4.484375 -6.945312 4.484375 -8.6875 L 4.484375 -24.1875 C 4.484375 -25.40625 4.179688 -26.21875 3.578125 -26.625 C 2.984375 -27.03125 1.984375 -27.25 0.578125 -27.28125 L 0.578125 -28.015625 L 14.4375 -28.015625 Z M 14.4375 -27.28125 "/></g></g></g><g fill="#004aad" fill-opacity="1"><g transform="translate(133.084954, 251.880977)"><g><path d="M 25.328125 -20.265625 C 25.328125 -18.554688 24.773438 -17.082031 23.671875 -15.84375 C 22.566406 -14.601562 21.078125 -13.753906 19.203125 -13.296875 L 24.71875 -4.28125 C 25.425781 -3.113281 26.082031 -2.238281 26.6875 -1.65625 C 27.300781 -1.070312 27.921875 -0.765625 28.546875 -0.734375 L 28.546875 0 L 20.265625 0 L 12.484375 -12.765625 L 11.21875 -12.765625 L 11.21875 -4.234375 C 11.21875 -3.179688 11.359375 -2.410156 11.640625 -1.921875 C 11.929688 -1.429688 12.347656 -1.117188 12.890625 -0.984375 C 13.429688 -0.847656 14.242188 -0.765625 15.328125 -0.734375 L 15.328125 0 L 0.78125 0 L 0.78125 -0.734375 C 1.8125 -0.765625 2.59375 -0.851562 3.125 -1 C 3.65625 -1.144531 4.046875 -1.46875 4.296875 -1.96875 C 4.554688 -2.476562 4.6875 -3.234375 4.6875 -4.234375 L 4.6875 -24.140625 C 4.6875 -25.367188 4.378906 -26.195312 3.765625 -26.625 C 3.160156 -27.0625 2.164062 -27.28125 0.78125 -27.28125 L 0.78125 -28.015625 L 15.171875 -28.015625 C 18.191406 -28.015625 20.640625 -27.332031 22.515625 -25.96875 C 24.390625 -24.613281 25.328125 -22.710938 25.328125 -20.265625 Z M 13.421875 -14.28125 C 14.773438 -14.28125 15.992188 -14.707031 17.078125 -15.5625 C 18.171875 -16.414062 18.71875 -18.023438 18.71875 -20.390625 C 18.71875 -24.472656 16.75 -26.515625 12.8125 -26.515625 L 11.21875 -26.515625 L 11.21875 -14.28125 Z M 13.421875 -14.28125 "/></g></g></g><g fill="#004aad" fill-opacity="1"><g transform="translate(162.407906, 251.880977)"><g><path d="M 24.34375 -20.03125 L 23.609375 -20.03125 C 23.234375 -22.144531 22.472656 -23.753906 21.328125 -24.859375 C 20.179688 -25.960938 18.6875 -26.515625 16.84375 -26.515625 L 11.34375 -26.515625 L 11.34375 -15.046875 L 12.1875 -15.046875 C 13.226562 -15.046875 14.078125 -15.207031 14.734375 -15.53125 C 15.398438 -15.863281 15.960938 -16.5 16.421875 -17.4375 C 16.890625 -18.375 17.234375 -19.710938 17.453125 -21.453125 L 18.1875 -21.453125 L 18.1875 -7.21875 L 17.453125 -7.21875 C 17.148438 -9.6875 16.570312 -11.359375 15.71875 -12.234375 C 14.863281 -13.109375 13.742188 -13.546875 12.359375 -13.546875 L 11.34375 -13.546875 L 11.34375 -4.53125 C 11.34375 -3.351562 11.515625 -2.554688 11.859375 -2.140625 C 12.210938 -1.722656 12.894531 -1.515625 13.90625 -1.515625 L 16.84375 -1.515625 C 19.238281 -1.515625 21.113281 -2.160156 22.46875 -3.453125 C 23.832031 -4.742188 24.863281 -6.472656 25.5625 -8.640625 L 26.296875 -8.640625 L 25.046875 0 L 0.734375 0 L 0.734375 -0.734375 L 1.671875 -0.734375 C 2.617188 -0.734375 3.316406 -0.875 3.765625 -1.15625 C 4.210938 -1.445312 4.5 -1.820312 4.625 -2.28125 C 4.75 -2.75 4.8125 -3.375 4.8125 -4.15625 L 4.8125 -23.9375 C 4.8125 -25.269531 4.503906 -26.148438 3.890625 -26.578125 C 3.285156 -27.015625 2.234375 -27.25 0.734375 -27.28125 L 0.734375 -28.015625 L 24.34375 -28.015625 Z M 24.34375 -20.03125 "/></g></g></g><g fill="#004aad" fill-opacity="1"><g transform="translate(189.610146, 251.880977)"><g><path d="M 25.9375 -9.828125 L 25.9375 -23.734375 C 25.9375 -25.015625 25.601562 -25.925781 24.9375 -26.46875 C 24.269531 -27.007812 23.203125 -27.28125 21.734375 -27.28125 L 21.734375 -28.015625 L 30.875 -28.015625 L 30.875 -27.28125 C 29.675781 -27.28125 28.789062 -26.953125 28.21875 -26.296875 C 27.644531 -25.648438 27.359375 -24.796875 27.359375 -23.734375 L 27.359375 0.40625 L 26.671875 0.40625 L 6 -22.921875 L 6 -4.125 C 6 -2.84375 6.335938 -1.957031 7.015625 -1.46875 C 7.691406 -0.976562 8.738281 -0.734375 10.15625 -0.734375 L 10.4375 -0.734375 L 10.4375 0 L 0.609375 0 L 0.609375 -0.734375 C 3.242188 -0.734375 4.5625 -1.820312 4.5625 -4 L 4.5625 -24.546875 C 4.40625 -24.710938 4.070312 -25.070312 3.5625 -25.625 C 3.0625 -26.1875 2.578125 -26.59375 2.109375 -26.84375 C 1.648438 -27.101562 1.148438 -27.25 0.609375 -27.28125 L 0.609375 -28.015625 L 9.90625 -28.015625 Z M 25.9375 -9.828125 "/></g></g></g><g fill="#004aad" fill-opacity="1"><g transform="translate(221.053808, 251.880977)"><g><path d="M 26.0625 -20.671875 L 25.328125 -20.671875 C 25.140625 -22.609375 24.535156 -24.066406 23.515625 -25.046875 C 22.492188 -26.023438 21.332031 -26.515625 20.03125 -26.515625 L 16.84375 -26.515625 L 16.84375 -4.40625 C 16.84375 -3.394531 16.976562 -2.628906 17.25 -2.109375 C 17.519531 -1.597656 17.941406 -1.25 18.515625 -1.0625 C 19.085938 -0.875 19.890625 -0.765625 20.921875 -0.734375 L 20.921875 0 L 6.234375 0 L 6.234375 -0.734375 C 7.273438 -0.734375 8.070312 -0.804688 8.625 -0.953125 C 9.1875 -1.109375 9.609375 -1.441406 9.890625 -1.953125 C 10.171875 -2.472656 10.3125 -3.265625 10.3125 -4.328125 L 10.3125 -26.515625 L 6.8125 -26.515625 C 5.582031 -26.515625 4.492188 -25.972656 3.546875 -24.890625 C 2.597656 -23.816406 2.023438 -22.410156 1.828125 -20.671875 L 1.09375 -20.671875 L 1.09375 -28.015625 L 26.0625 -28.015625 Z M 26.0625 -20.671875 "/></g></g></g><g fill="#004aad" fill-opacity="1"><g transform="translate(248.256058, 251.880977)"><g><path d="M 24.34375 -20.03125 L 23.609375 -20.03125 C 23.234375 -22.144531 22.472656 -23.753906 21.328125 -24.859375 C 20.179688 -25.960938 18.6875 -26.515625 16.84375 -26.515625 L 11.34375 -26.515625 L 11.34375 -15.046875 L 12.1875 -15.046875 C 13.226562 -15.046875 14.078125 -15.207031 14.734375 -15.53125 C 15.398438 -15.863281 15.960938 -16.5 16.421875 -17.4375 C 16.890625 -18.375 17.234375 -19.710938 17.453125 -21.453125 L 18.1875 -21.453125 L 18.1875 -7.21875 L 17.453125 -7.21875 C 17.148438 -9.6875 16.570312 -11.359375 15.71875 -12.234375 C 14.863281 -13.109375 13.742188 -13.546875 12.359375 -13.546875 L 11.34375 -13.546875 L 11.34375 -4.53125 C 11.34375 -3.351562 11.515625 -2.554688 11.859375 -2.140625 C 12.210938 -1.722656 12.894531 -1.515625 13.90625 -1.515625 L 16.84375 -1.515625 C 19.238281 -1.515625 21.113281 -2.160156 22.46875 -3.453125 C 23.832031 -4.742188 24.863281 -6.472656 25.5625 -8.640625 L 26.296875 -8.640625 L 25.046875 0 L 0.734375 0 L 0.734375 -0.734375 L 1.671875 -0.734375 C 2.617188 -0.734375 3.316406 -0.875 3.765625 -1.15625 C 4.210938 -1.445312 4.5 -1.820312 4.625 -2.28125 C 4.75 -2.75 4.8125 -3.375 4.8125 -4.15625 L 4.8125 -23.9375 C 4.8125 -25.269531 4.503906 -26.148438 3.890625 -26.578125 C 3.285156 -27.015625 2.234375 -27.25 0.734375 -27.28125 L 0.734375 -28.015625 L 24.34375 -28.015625 Z M 24.34375 -20.03125 "/></g></g></g><g fill="#004aad" fill-opacity="1"><g transform="translate(275.458289, 251.880977)"><g><path d="M 24.34375 -20.03125 L 23.609375 -20.03125 C 23.234375 -22.144531 22.472656 -23.753906 21.328125 -24.859375 C 20.179688 -25.960938 18.6875 -26.515625 16.84375 -26.515625 L 11.34375 -26.515625 L 11.34375 -15.046875 L 12.1875 -15.046875 C 13.226562 -15.046875 14.078125 -15.207031 14.734375 -15.53125 C 15.398438 -15.863281 15.960938 -16.5 16.421875 -17.4375 C 16.890625 -18.375 17.234375 -19.710938 17.453125 -21.453125 L 18.1875 -21.453125 L 18.1875 -7.21875 L 17.453125 -7.21875 C 17.148438 -9.6875 16.570312 -11.359375 15.71875 -12.234375 C 14.863281 -13.109375 13.742188 -13.546875 12.359375 -13.546875 L 11.34375 -13.546875 L 11.34375 -4.53125 C 11.34375 -3.351562 11.515625 -2.554688 11.859375 -2.140625 C 12.210938 -1.722656 12.894531 -1.515625 13.90625 -1.515625 L 16.84375 -1.515625 C 19.238281 -1.515625 21.113281 -2.160156 22.46875 -3.453125 C 23.832031 -4.742188 24.863281 -6.472656 25.5625 -8.640625 L 26.296875 -8.640625 L 25.046875 0 L 0.734375 0 L 0.734375 -0.734375 L 1.671875 -0.734375 C 2.617188 -0.734375 3.316406 -0.875 3.765625 -1.15625 C 4.210938 -1.445312 4.5 -1.820312 4.625 -2.28125 C 4.75 -2.75 4.8125 -3.375 4.8125 -4.15625 L 4.8125 -23.9375 C 4.8125 -25.269531 4.503906 -26.148438 3.890625 -26.578125 C 3.285156 -27.015625 2.234375 -27.25 0.734375 -27.28125 L 0.734375 -28.015625 L 24.34375 -28.015625 Z M 24.34375 -20.03125 "/></g></g></g><g fill="#004aad" fill-opacity="1"><g transform="translate(302.66052, 251.880977)"><g><path d="M 30.015625 -13.828125 C 30.015625 -10.941406 29.394531 -8.453125 28.15625 -6.359375 C 26.914062 -4.265625 25.226562 -2.679688 23.09375 -1.609375 C 20.96875 -0.535156 18.597656 0 15.984375 0 L 0.6875 0 L 0.6875 -0.734375 C 1.695312 -0.734375 2.457031 -0.804688 2.96875 -0.953125 C 3.488281 -1.109375 3.878906 -1.429688 4.140625 -1.921875 C 4.398438 -2.410156 4.53125 -3.179688 4.53125 -4.234375 L 4.53125 -23.734375 C 4.53125 -24.796875 4.394531 -25.578125 4.125 -26.078125 C 3.851562 -26.578125 3.457031 -26.898438 2.9375 -27.046875 C 2.414062 -27.203125 1.664062 -27.28125 0.6875 -27.28125 L 0.6875 -28.015625 L 15.328125 -28.015625 C 17.992188 -28.015625 20.441406 -27.476562 22.671875 -26.40625 C 24.898438 -25.332031 26.679688 -23.726562 28.015625 -21.59375 C 29.347656 -19.457031 30.015625 -16.867188 30.015625 -13.828125 Z M 14.1875 -1.421875 C 19.894531 -1.421875 22.75 -5.488281 22.75 -13.625 C 22.75 -18.164062 21.925781 -21.460938 20.28125 -23.515625 C 18.644531 -25.566406 16.570312 -26.59375 14.0625 -26.59375 L 11.046875 -26.59375 L 11.046875 -4.15625 C 11.046875 -3.375 11.132812 -2.789062 11.3125 -2.40625 C 11.488281 -2.019531 11.796875 -1.757812 12.234375 -1.625 C 12.671875 -1.488281 13.320312 -1.421875 14.1875 -1.421875 Z M 14.1875 -1.421875 "/></g></g></g><g fill="#004aad" fill-opacity="1"><g transform="translate(100.816404, 146.015498)"><g><path d="M 23.796875 -50.953125 L 23.796875 -6.78125 C 23.796875 -4.882812 24.257812 -3.5 25.1875 -2.625 C 26.113281 -1.75 27.863281 -1.3125 30.4375 -1.3125 L 31.03125 -1.3125 L 31.03125 0 L 5.109375 0 L 5.109375 -1.3125 L 7.296875 -1.3125 C 9.191406 -1.3125 10.625 -1.664062 11.59375 -2.375 C 12.570312 -3.082031 13.0625 -4.503906 13.0625 -6.640625 L 13.0625 -38.171875 C 13.0625 -41.191406 11.796875 -42.703125 9.265625 -42.703125 C 8.640625 -42.703125 8.054688 -42.628906 7.515625 -42.484375 C 6.984375 -42.335938 6.179688 -42.019531 5.109375 -41.53125 L 4.453125 -42.78125 L 22.5625 -50.953125 Z M 23.796875 -50.953125 "/></g></g></g><g fill="#004aad" fill-opacity="1"><g transform="translate(137.314471, 146.015498)"><g><path d="M 18.25 -50.953125 C 20.976562 -50.953125 23.609375 -50.078125 26.140625 -48.328125 C 28.671875 -46.578125 30.75 -43.765625 32.375 -39.890625 C 34.007812 -36.023438 34.828125 -31.070312 34.828125 -25.03125 C 34.828125 -19.875 34.128906 -15.335938 32.734375 -11.421875 C 31.347656 -7.503906 29.398438 -4.472656 26.890625 -2.328125 C 24.390625 -0.191406 21.484375 0.875 18.171875 0.875 C 14.960938 0.875 12.101562 -0.207031 9.59375 -2.375 C 7.09375 -4.539062 5.144531 -7.582031 3.75 -11.5 C 2.363281 -15.414062 1.671875 -19.90625 1.671875 -24.96875 C 1.671875 -29.976562 2.375 -34.453125 3.78125 -38.390625 C 5.195312 -42.335938 7.160156 -45.414062 9.671875 -47.625 C 12.179688 -49.84375 15.039062 -50.953125 18.25 -50.953125 Z M 18.390625 -1.390625 C 19.609375 -1.390625 20.582031 -1.765625 21.3125 -2.515625 C 22.039062 -3.273438 22.597656 -4.6875 22.984375 -6.75 C 23.378906 -8.820312 23.578125 -11.78125 23.578125 -15.625 L 23.578125 -33.796875 C 23.578125 -37.890625 23.441406 -40.96875 23.171875 -43.03125 C 22.910156 -45.101562 22.398438 -46.5625 21.640625 -47.40625 C 20.890625 -48.257812 19.785156 -48.6875 18.328125 -48.6875 C 16.910156 -48.6875 15.8125 -48.1875 15.03125 -47.1875 C 14.257812 -46.195312 13.710938 -44.566406 13.390625 -42.296875 C 13.078125 -40.035156 12.921875 -36.863281 12.921875 -32.78125 L 12.921875 -17.15625 C 12.921875 -12.96875 13.078125 -9.765625 13.390625 -7.546875 C 13.710938 -5.335938 14.257812 -3.757812 15.03125 -2.8125 C 15.8125 -1.863281 16.929688 -1.390625 18.390625 -1.390625 Z M 18.390625 -1.390625 "/></g></g></g><g fill="#004aad" fill-opacity="1"><g transform="translate(173.812539, 146.015498)"><g><path d="M 18.25 -50.953125 C 20.976562 -50.953125 23.609375 -50.078125 26.140625 -48.328125 C 28.671875 -46.578125 30.75 -43.765625 32.375 -39.890625 C 34.007812 -36.023438 34.828125 -31.070312 34.828125 -25.03125 C 34.828125 -19.875 34.128906 -15.335938 32.734375 -11.421875 C 31.347656 -7.503906 29.398438 -4.472656 26.890625 -2.328125 C 24.390625 -0.191406 21.484375 0.875 18.171875 0.875 C 14.960938 0.875 12.101562 -0.207031 9.59375 -2.375 C 7.09375 -4.539062 5.144531 -7.582031 3.75 -11.5 C 2.363281 -15.414062 1.671875 -19.90625 1.671875 -24.96875 C 1.671875 -29.976562 2.375 -34.453125 3.78125 -38.390625 C 5.195312 -42.335938 7.160156 -45.414062 9.671875 -47.625 C 12.179688 -49.84375 15.039062 -50.953125 18.25 -50.953125 Z M 18.390625 -1.390625 C 19.609375 -1.390625 20.582031 -1.765625 21.3125 -2.515625 C 22.039062 -3.273438 22.597656 -4.6875 22.984375 -6.75 C 23.378906 -8.820312 23.578125 -11.78125 23.578125 -15.625 L 23.578125 -33.796875 C 23.578125 -37.890625 23.441406 -40.96875 23.171875 -43.03125 C 22.910156 -45.101562 22.398438 -46.5625 21.640625 -47.40625 C 20.890625 -48.257812 19.785156 -48.6875 18.328125 -48.6875 C 16.910156 -48.6875 15.8125 -48.1875 15.03125 -47.1875 C 14.257812 -46.195312 13.710938 -44.566406 13.390625 -42.296875 C 13.078125 -40.035156 12.921875 -36.863281 12.921875 -32.78125 L 12.921875 -17.15625 C 12.921875 -12.96875 13.078125 -9.765625 13.390625 -7.546875 C 13.710938 -5.335938 14.257812 -3.757812 15.03125 -2.8125 C 15.8125 -1.863281 16.929688 -1.390625 18.390625 -1.390625 Z M 18.390625 -1.390625 "/></g></g></g><g fill="#004aad" fill-opacity="1"><g transform="translate(210.310606, 146.015498)"><g><path d="M 50.296875 -51.25 L 17.890625 1.96875 L 13.359375 1.96875 L 45.765625 -51.25 Z M 13.359375 -50.953125 C 16.328125 -50.953125 18.734375 -49.769531 20.578125 -47.40625 C 22.429688 -45.050781 23.359375 -41.925781 23.359375 -38.03125 C 23.359375 -34.132812 22.445312 -30.992188 20.625 -28.609375 C 18.800781 -26.222656 16.378906 -25.03125 13.359375 -25.03125 C 10.390625 -25.03125 7.992188 -26.222656 6.171875 -28.609375 C 4.347656 -30.992188 3.4375 -34.132812 3.4375 -38.03125 C 3.4375 -40.507812 3.859375 -42.734375 4.703125 -44.703125 C 5.554688 -46.679688 6.738281 -48.21875 8.25 -49.3125 C 9.757812 -50.40625 11.460938 -50.953125 13.359375 -50.953125 Z M 13.5 -26.140625 C 14.570312 -26.140625 15.351562 -26.5625 15.84375 -27.40625 C 16.332031 -28.257812 16.578125 -29.632812 16.578125 -31.53125 L 16.578125 -43.0625 C 16.578125 -45.789062 16.332031 -47.601562 15.84375 -48.5 C 15.351562 -49.40625 14.550781 -49.859375 13.4375 -49.859375 C 12.21875 -49.859375 11.363281 -49.273438 10.875 -48.109375 C 10.382812 -46.941406 10.140625 -44.703125 10.140625 -41.390625 L 10.140625 -35.109375 C 10.140625 -32.679688 10.238281 -30.832031 10.4375 -29.5625 C 10.632812 -28.300781 10.960938 -27.414062 11.421875 -26.90625 C 11.890625 -26.394531 12.582031 -26.140625 13.5 -26.140625 Z M 50.4375 -25.484375 C 53.40625 -25.484375 55.8125 -24.300781 57.65625 -21.9375 C 59.507812 -19.570312 60.4375 -16.445312 60.4375 -12.5625 C 60.4375 -8.664062 59.523438 -5.523438 57.703125 -3.140625 C 55.878906 -0.753906 53.457031 0.4375 50.4375 0.4375 C 47.46875 0.4375 45.070312 -0.753906 43.25 -3.140625 C 41.425781 -5.523438 40.515625 -8.664062 40.515625 -12.5625 C 40.515625 -15.039062 40.9375 -17.265625 41.78125 -19.234375 C 42.632812 -21.203125 43.816406 -22.734375 45.328125 -23.828125 C 46.835938 -24.929688 48.539062 -25.484375 50.4375 -25.484375 Z M 50.59375 -0.65625 C 51.65625 -0.65625 52.429688 -1.082031 52.921875 -1.9375 C 53.410156 -2.789062 53.65625 -4.164062 53.65625 -6.0625 L 53.65625 -17.59375 C 53.65625 -20.320312 53.410156 -22.132812 52.921875 -23.03125 C 52.429688 -23.925781 51.628906 -24.375 50.515625 -24.375 C 49.296875 -24.375 48.441406 -23.789062 47.953125 -22.625 C 47.472656 -21.457031 47.234375 -19.21875 47.234375 -15.90625 L 47.234375 -9.640625 C 47.234375 -7.203125 47.328125 -5.347656 47.515625 -4.078125 C 47.710938 -2.816406 48.039062 -1.929688 48.5 -1.421875 C 48.96875 -0.910156 49.664062 -0.65625 50.59375 -0.65625 Z M 50.59375 -0.65625 "/></g></g></g></svg>