<svg width="400" height="300" viewBox="0 0 400 300" xmlns="http://www.w3.org/2000/svg">
  <!-- Background -->
  <rect width="400" height="300" fill="#f0f2f5" />
  
  <!-- Expert 1 -->
  <circle cx="100" cy="100" r="30" fill="#4a6fa5" />
  <rect x="70" y="130" width="60" height="80" fill="#4a6fa5" />
  <path d="M70,130 L130,130 L120,150 L80,150 Z" fill="#3a5a80" />
  
  <!-- Expert 2 (center) -->
  <circle cx="200" cy="100" r="30" fill="#6a8fc5" />
  <rect x="170" y="130" width="60" height="80" fill="#6a8fc5" />
  <path d="M170,130 L230,130 L220,150 L180,150 Z" fill="#5a7fb0" />
  <!-- Briefcase -->
  <rect x="185" y="160" width="30" height="15" fill="#333" />
  <rect x="190" y="175" width="20" height="5" fill="#555" />
  
  <!-- Expert 3 -->
  <circle cx="300" cy="100" r="30" fill="#4a6fa5" />
  <rect x="270" y="130" width="60" height="80" fill="#4a6fa5" />
  <path d="M270,130 L330,130 L320,150 L280,150 Z" fill="#3a5a80" />
  <!-- Laptop -->
  <rect x="285" y="150" width="30" height="20" fill="#ddd" />
  <rect x="280" y="170" width="40" height="5" fill="#bbb" />
  
  <!-- Speech bubbles -->
  <path d="M130,70 Q150,50 170,70 Q180,90 150,90 Q130,85 130,70" fill="white" />
  <path d="M230,70 Q250,50 270,70 Q280,90 250,90 Q230,85 230,70" fill="white" />
  <path d="M330,70 Q350,50 370,70 Q380,90 350,90 Q330,85 330,70" fill="white" />
  
  <!-- Icons in bubbles -->
  <text x="150" y="80" font-family="Arial" font-size="12" text-anchor="middle" fill="#4a6fa5">+</text>
  <text x="250" y="80" font-family="Arial" font-size="12" text-anchor="middle" fill="#6a8fc5">✓</text>
  <text x="350" y="80" font-family="Arial" font-size="12" text-anchor="middle" fill="#4a6fa5">%</text>
  
  <!-- Title -->
  <text x="200" y="250" font-family="Arial" font-size="20" text-anchor="middle" fill="#333">Team of Experts</text>
</svg>